<svg xmlns="http://www.w3.org/2000/svg" version="1.1" width="1024" height="1024">

<path d="M0 0 C1.46565619 -0.00258903 2.93131168 -0.00560367 4.39696622 -0.0090034 C8.39807469 -0.01701384 12.39916517 -0.01885962 16.40028071 -0.01960087 C20.72640757 -0.02146194 25.05252532 -0.02901459 29.37864685 -0.03573608 C38.82758426 -0.04927855 48.27651741 -0.05533803 57.72546291 -0.05974674 C63.63561276 -0.06251667 69.54576098 -0.06675543 75.45590973 -0.07125092 C91.84783704 -0.08343934 108.23976305 -0.09373878 124.63169479 -0.09712601 C125.67945975 -0.09734557 126.72722471 -0.09756514 127.80674012 -0.09779136 C128.85689189 -0.09800964 129.90704365 -0.09822791 130.9890182 -0.09845281 C133.11672258 -0.09889626 135.24442697 -0.09934282 137.37213135 -0.09979248 C138.42752716 -0.10001391 139.48292298 -0.10023534 140.57030049 -0.10046348 C157.64834562 -0.10440641 174.72634795 -0.12184693 191.80437657 -0.145152 C209.37540039 -0.16893444 226.94640279 -0.18133102 244.51744294 -0.18249393 C254.36776962 -0.18340694 264.21804054 -0.18906422 274.06835175 -0.20731354 C282.46078782 -0.22280802 290.85315091 -0.22778048 299.24559858 -0.21957543 C303.51784156 -0.21570142 307.789938 -0.21643677 312.0621624 -0.23063278 C358.88656297 -0.37703956 403.53178447 7.23378139 438.59136963 41.01544189 C469.05953469 73.01981696 480.43482995 111.02387196 480.42604065 154.40579224 C480.42934871 155.90617311 480.43307622 157.4065531 480.43718213 158.906932 C480.44710266 162.99473216 480.45090264 167.08251766 480.45357144 171.17032814 C480.45750419 175.59321833 480.46707995 180.01609722 480.4757843 184.4389801 C480.49546172 195.10042813 480.50560214 205.76187697 480.51451209 216.42333859 C480.51890786 221.45712385 480.52427116 226.49090808 480.52950096 231.52469254 C480.54650175 248.27870655 480.56099427 265.03271995 480.5682497 281.78674126 C480.57015924 286.1253446 480.57207963 290.46394794 480.57403564 294.80255127 C480.57451938 295.880741 480.57500312 296.95893073 480.57550152 298.06979288 C480.58379608 315.5227825 480.60912849 332.97570346 480.64161632 350.42866312 C480.67477251 368.38847418 480.69270603 386.34825043 480.69589394 404.30809224 C480.69805073 414.37526729 480.70667728 424.44234211 480.73235512 434.50948715 C480.75417916 443.08487663 480.76205534 451.66014147 480.75238834 460.23555557 C480.74787777 464.6010172 480.74953801 468.9662223 480.76914978 473.33164787 C480.86350598 495.55728624 480.25648268 517.28198753 473.02886963 538.57794189 C472.58607666 539.9223938 472.58607666 539.9223938 472.13433838 541.29400635 C466.48997305 557.84185669 457.68620771 572.89978162 446.27886963 586.14044189 C445.79031494 586.70811279 445.30176025 587.27578369 444.79840088 587.86065674 C432.24548987 602.28662619 418.18216083 612.34679512 401.27886963 621.14044189 C399.91761963 621.86167236 399.91761963 621.86167236 398.52886963 622.59747314 C376.33526574 633.52088756 350.92540785 636.30389069 326.53755188 636.27415466 C325.0697578 636.27602629 323.60196423 636.27832838 322.13417143 636.28101999 C318.12726894 636.28710126 314.12038744 636.28700874 310.1134814 636.28582561 C305.78127848 636.28562066 301.44908214 636.2911494 297.11688232 636.29588318 C288.63799472 636.30417079 280.15911407 636.30693719 271.68022276 636.30749556 C264.78181882 636.30797174 257.88341717 636.3100316 250.98501396 636.31319618 C231.39581805 636.32199864 211.80662761 636.32661635 192.2174297 636.32586571 C191.16254619 636.32582575 190.10766267 636.3257858 189.02081299 636.32574463 C187.96463024 636.32570375 186.90844749 636.32566287 185.82025921 636.32562075 C168.72079809 636.32521469 151.62135904 636.33477511 134.5219043 636.348883 C116.93394491 636.36327852 99.34599626 636.37015139 81.75803083 636.36928922 C71.89607685 636.36895828 62.03414599 636.37165978 52.17219734 636.38246727 C43.77200016 636.3916143 35.37183657 636.39371335 26.97163654 636.38695785 C22.69372099 636.38371334 18.41586971 636.38356011 14.13796043 636.3923111 C-33.88370303 636.48420675 -77.34033596 629.1275696 -112.72113037 594.14044189 C-146.73096774 559.72989952 -154.38501568 516.78391387 -154.24402905 470.34123492 C-154.23485157 465.85442467 -154.24901013 461.36767267 -154.25994873 456.88087463 C-154.27760521 448.12498507 -154.27395198 439.36923374 -154.26229817 430.61333907 C-154.25321291 423.488344 -154.25206168 416.36338728 -154.25639343 409.23838806 C-154.25700636 408.21891015 -154.2576193 407.19943224 -154.2582508 406.14906105 C-154.25952988 404.07710841 -154.26082674 402.00515578 -154.26214117 399.93320316 C-154.27350926 380.56809995 -154.26049275 361.20307284 -154.2389397 341.83798212 C-154.22107218 325.27226007 -154.22417735 308.7066502 -154.24261475 292.14093018 C-154.26408842 272.83850275 -154.27241097 253.5361418 -154.26016569 234.23370409 C-154.25889168 232.16996798 -154.2576342 230.10623186 -154.25639343 228.04249573 C-154.25577633 227.02746761 -154.25515923 226.0124395 -154.25452343 224.96665296 C-154.25108996 217.86178033 -154.2568553 210.75695037 -154.26631165 203.65208435 C-154.27760558 194.97705787 -154.27433793 186.30217589 -154.25318867 177.62716568 C-154.24277666 173.21291408 -154.23838489 168.79890216 -154.25178528 164.38465309 C-154.30406902 145.61139275 -153.76384039 127.57801032 -149.72113037 109.14044189 C-149.56588426 108.40556203 -149.41063814 107.67068216 -149.2506876 106.91353321 C-144.18089506 83.08048417 -130.98708009 61.94045573 -114.72113037 44.14044189 C-113.61511475 42.92807861 -113.61511475 42.92807861 -112.48675537 41.69122314 C-83.05978351 10.92177994 -41.41688229 -0.02956242 0 0 Z " fill="#282E44" transform="translate(348.72113037109375,193.85955810546875)"/>
<path d="M0 0 C29.7 0 59.4 0 90 0 C90 12.54 90 25.08 90 38 C136.53 38 183.06 38 231 38 C231 64.34177028 230.70447789 81.23671073 215 101 C214.35160156 101.84949219 213.70320312 102.69898438 213.03515625 103.57421875 C203.61514329 114.80229562 189.91821578 121.41860545 176 125 C174.78034546 125.34231659 173.56069092 125.68463318 172.30407715 126.037323 C168.17338091 127.06358454 164.17495467 127.27060198 159.93164062 127.22705078 C158.78872055 127.22748886 158.78872055 127.22748886 157.62271118 127.22793579 C155.13377011 127.22655557 152.64513801 127.2110569 150.15625 127.1953125 C148.41890629 127.1915777 146.68156045 127.18873294 144.94421387 127.18673706 C140.39369794 127.17913732 135.84331172 127.15952064 131.29284668 127.1373291 C126.64056146 127.11679146 121.98825508 127.10771848 117.3359375 127.09765625 C108.22390166 127.07627099 99.11196166 127.04217969 90 127 C90.00444122 128.19079666 90.00888245 129.38159332 90.01345825 130.60847473 C90.05410528 141.8628874 90.08403275 153.11728506 90.10362434 164.37175465 C90.11403535 170.156966 90.12814535 175.94211782 90.15087891 181.72729492 C90.17270319 187.31643441 90.18458879 192.90551683 90.18975449 198.49469566 C90.19343308 200.62079452 90.20061623 202.74689047 90.21146011 204.87296486 C90.32490484 228.04924818 87.33379444 247.30574692 71.04296875 264.94140625 C65.82999409 270.19425069 60.22885978 273.55789177 53.5625 276.75 C52.95398193 277.04406738 52.34546387 277.33813477 51.71850586 277.64111328 C35.16878483 285.22740876 18.42124189 282 0 282 C0 188.94 0 95.88 0 0 Z " fill="#4AB9D8" transform="translate(453,427)"/>
<path d="M0 0 C1.23531881 -0.00128164 1.23531881 -0.00128164 2.49559355 -0.00258917 C5.23467454 -0.00422654 7.97369327 0.00124868 10.71276855 0.00672913 C12.68436685 0.0070114 14.65596524 0.00685248 16.62756348 0.00628662 C21.96577172 0.00600022 27.3039574 0.01187161 32.64216042 0.01886058 C38.22620148 0.02512022 43.81024308 0.02569998 49.39428711 0.02688599 C59.96215031 0.0299916 70.53000313 0.03819462 81.09786177 0.04823548 C93.13167425 0.05942051 105.16548724 0.06491309 117.19930363 0.06993091 C141.94793831 0.08037787 166.69656379 0.09796242 191.44519043 0.12025452 C191.49827228 4.08431581 191.5365443 8.04823544 191.56192017 12.01257324 C191.57768509 14.01350691 191.6047059 16.01434179 191.63195801 18.01515198 C191.68551587 28.01944601 190.55729903 35.911756 186.44519043 45.12025452 C186.02237793 46.16439514 185.59956543 47.20853577 185.16394043 48.28431702 C177.97297501 64.46398921 163.84019376 77.57674067 147.44519043 84.12025452 C143.14700162 85.58950793 138.82306261 86.91011099 134.44519043 88.12025452 C133.89382038 88.29920981 133.34245033 88.47816511 132.7743721 88.6625433 C129.29516682 89.3462475 125.82668619 89.25379277 122.29547119 89.24050903 C121.05302828 89.24179067 121.05302828 89.24179067 119.78548551 89.2430982 C117.0063418 89.24474706 114.22725828 89.23924132 111.44812012 89.23377991 C109.45740765 89.23349788 107.46669507 89.23365607 105.47598267 89.23422241 C100.06729204 89.23450979 94.6586235 89.22862271 89.24993801 89.22164845 C83.59914194 89.21540497 77.94834538 89.21481033 72.29754639 89.21362305 C61.59496938 89.21051267 50.89240257 89.20230323 40.18983006 89.19227356 C28.00617362 89.18110332 15.8225167 89.17559967 3.63885641 89.17057812 C-21.42570457 89.16012039 -46.4902565 89.14252661 -71.55480957 89.12025452 C-71.58404763 84.94579026 -71.60168819 80.77135269 -71.61730957 76.59681702 C-71.62568848 75.42062805 -71.63406738 74.24443909 -71.6427002 73.03260803 C-71.69971596 52.71361528 -64.58144829 34.85839285 -50.50793457 19.95228577 C-36.34948539 6.59477075 -19.32736624 -0.07457746 0 0 Z " fill="#8883EA" transform="translate(524.5548095703125,313.87974548339844)"/>
<path d="M0 0 C20.79 0 41.58 0 63 0 C63 65.01 63 130.02 63 197 C42.21 197 21.42 197 0 197 C0 131.99 0 66.98 0 0 Z " fill="#5CA8E0" transform="translate(365,512)"/>
<path d="M0 0 C20.79 0 41.58 0 63 0 C63 36.3 63 72.6 63 110 C42.21 110 21.42 110 0 110 C0 73.7 0 37.4 0 0 Z " fill="#659CE2" transform="translate(286,599)"/>
<path d="M0 0 C29.7 0 59.4 0 90 0 C90 12.54 90 25.08 90 38 C136.53 38 183.06 38 231 38 C231 38.33 231 38.66 231 39 C184.14 39 137.28 39 89 39 C89 26.46 89 13.92 89 1 C84.6378125 1.2475 84.6378125 1.2475 80.1875 1.5 C70.86685614 1.96845398 61.56292084 2.04886115 52.23352051 2.00942993 C40.46233102 1.95973193 28.69406428 1.95235605 16.92602539 2.26245117 C14.97238804 2.31162191 13.01840483 2.34637208 11.06445312 2.38085938 C9.31358398 2.4340332 9.31358398 2.4340332 7.52734375 2.48828125 C5.99194946 2.52755737 5.99194946 2.52755737 4.42553711 2.56762695 C3.62510986 2.71031006 2.82468262 2.85299316 2 3 C1.34 3.99 0.68 4.98 0 6 C0 4.02 0 2.04 0 0 Z " fill="#5198BC" transform="translate(453,427)"/>
<path d="M0 0 C27.06 0 54.12 0 82 0 C82 0.33 82 0.66 82 1 C72.17853707 1.79602269 62.46880825 2.10459044 52.61959839 2.01748657 C40.71906224 1.92211984 28.81613372 1.94766116 16.91897583 2.26245117 C14.96826088 2.31172303 13.01719509 2.34640839 11.06616211 2.38085938 C9.31444702 2.4340332 9.31444702 2.4340332 7.52734375 2.48828125 C5.99194946 2.52755737 5.99194946 2.52755737 4.42553711 2.56762695 C3.62510986 2.71031006 2.82468262 2.85299316 2 3 C1.34 3.99 0.68 4.98 0 6 C0 4.02 0 2.04 0 0 Z " fill="#707FD0" transform="translate(453,427)"/>
<path d="M0 0 C0 3 0 3 -1.19335938 4.53393555 C-1.73798828 5.062854 -2.28261719 5.59177246 -2.84375 6.13671875 C-3.72353516 7.00200195 -3.72353516 7.00200195 -4.62109375 7.88476562 C-5.24113281 8.47966797 -5.86117188 9.07457031 -6.5 9.6875 C-7.12003906 10.29400391 -7.74007813 10.90050781 -8.37890625 11.52539062 C-9.91264707 13.02373743 -11.45548198 14.51276493 -13 16 C-13 11.93645091 -11.47015238 10.94829419 -8.75 8 C-7.96109375 7.13375 -7.1721875 6.2675 -6.359375 5.375 C-4.3351828 3.33740256 -2.34982916 1.63841299 0 0 Z " fill="#A569E2" transform="translate(481,328)"/>
</svg>